<svg width="129" height="17" viewBox="0 0 129 17" fill="none" xmlns="http://www.w3.org/2000/svg">
<path d="M0.5 1.20055H4.84438V4.12596H0.5V1.20055ZM0.5 5.46722H4.84438V16.6831H0.5V5.46722ZM7.33452 5.46722H11.38V7.29428C11.9849 6.54796 12.5969 6.01463 13.216 5.69428C13.8351 5.37393 14.5894 5.21375 15.4789 5.21375C16.6815 5.21375 17.6226 5.56754 18.3022 6.27514C18.9818 6.98273 19.3216 8.07579 19.3216 9.55435V16.6831H14.9559V10.5154C14.9559 9.81133 14.8242 9.3132 14.5609 9.02101C14.2976 8.72882 13.9276 8.58273 13.4508 8.58273C12.9242 8.58273 12.4973 8.77987 12.1699 9.17415C11.8426 9.56843 11.6789 10.276 11.6789 11.2969V16.6831H7.33452V5.46722ZM26.4657 5.46722H28.5365V8.61441H26.4657V16.6831H22.1106V8.61441H20.4881V5.46722H22.1106V4.96029C22.1106 4.50264 22.1604 3.99923 22.2601 3.45005C22.3597 2.90088 22.5465 2.45204 22.8204 2.10352C23.0944 1.755 23.4787 1.47338 23.9733 1.25864C24.4678 1.04389 25.1919 0.936523 26.1454 0.936523L26.5214 0.942773C27.2555 0.965686 28.2368 1.05161 29.4651 1.20055L28.9848 3.79857C28.4653 3.71408 28.0454 3.67184 27.7252 3.67184C27.3338 3.67184 27.0527 3.73696 26.882 3.86722C26.7112 3.99747 26.5902 4.20341 26.519 4.48504C26.4835 4.63993 26.4657 4.96732 26.4657 5.46722ZM28.9451 11.1068C28.9451 9.39592 29.5286 7.98603 30.6957 6.87712C31.8627 5.7682 33.4389 5.21375 35.4243 5.21375C37.6944 5.21375 39.4094 5.86501 40.5693 7.16755C41.5015 8.21662 41.9676 9.50857 41.9676 11.0435C41.9676 12.7684 41.3894 14.1818 40.2331 15.2837C39.0767 16.3856 37.4774 16.9365 35.435 16.9365C33.6133 16.9365 32.1403 16.4789 31.0159 15.5636C29.6354 14.43 28.9451 12.9445 28.9451 11.1068ZM33.3002 11.0963C33.3002 12.096 33.5048 12.8353 33.914 13.3141C34.3231 13.7929 34.8373 14.0322 35.4564 14.0322C36.0826 14.0322 36.5967 13.7964 36.9988 13.3246C37.4008 12.8529 37.6019 12.096 37.6019 11.054C37.6019 10.0824 37.3991 9.35897 36.9935 8.88372C36.5878 8.40847 36.0861 8.17085 35.4884 8.17085C34.8551 8.17085 34.332 8.41199 33.9193 8.89428C33.5066 9.37657 33.3002 10.1106 33.3002 11.0963ZM43.8066 5.46722H47.8628V7.10418C48.4463 6.42123 49.0352 5.93542 49.6294 5.64675C50.2236 5.35808 50.9405 5.21375 51.7802 5.21375C52.684 5.21375 53.3991 5.37217 53.9257 5.689C54.4523 6.00583 54.8828 6.47755 55.2173 7.10418C55.9004 6.37194 56.5231 5.87382 57.0853 5.60979C57.6474 5.34576 58.3413 5.21375 59.1667 5.21375C60.3836 5.21375 61.3336 5.57106 62.0167 6.2857C62.6999 7.00033 63.0414 8.11803 63.0414 9.63883V16.6831H58.6864V10.2936C58.6864 9.78669 58.5868 9.41001 58.3875 9.16359C58.0957 8.77635 57.7328 8.58273 57.2988 8.58273C56.7864 8.58273 56.3737 8.76578 56.0606 9.1319C55.7474 9.49802 55.5909 10.0859 55.5909 10.8956V16.6831H51.2358V10.5048C51.2358 10.012 51.2074 9.67756 51.1504 9.50154C51.0579 9.21991 50.8978 8.99285 50.6701 8.82035C50.4424 8.64785 50.1755 8.56161 49.8695 8.56161C49.3714 8.56161 48.9622 8.74818 48.642 9.12134C48.3218 9.4945 48.1617 10.107 48.1617 10.959V16.6831H43.8066V5.46722ZM69.3102 9.10022L65.158 8.66722C65.3145 7.94906 65.5405 7.38405 65.8358 6.97217C66.1311 6.56028 66.5563 6.20297 67.1114 5.90022C67.5099 5.68196 68.0578 5.51298 68.7552 5.39329C69.4526 5.2736 70.2069 5.21375 71.0181 5.21375C72.3204 5.21375 73.3664 5.28592 74.1563 5.43025C74.9462 5.57459 75.6044 5.87557 76.131 6.33322C76.5011 6.65006 76.7928 7.0989 77.0063 7.67975C77.2198 8.26062 77.3265 8.81507 77.3265 9.34312V14.2963C77.3265 14.8243 77.3603 15.238 77.4279 15.5372C77.4955 15.8364 77.6432 16.2184 77.8709 16.6831H73.7934C73.6297 16.3944 73.523 16.1744 73.4732 16.023C73.4233 15.8716 73.3735 15.634 73.3237 15.3101C72.7544 15.8523 72.1887 16.2395 71.6265 16.4718C70.858 16.7816 69.9649 16.9365 68.9473 16.9365C67.5953 16.9365 66.5688 16.6267 65.8678 16.0072C65.1669 15.3876 64.8164 14.6237 64.8164 13.7154C64.8164 12.8635 65.069 12.1629 65.5743 11.6138C66.0434 11.1038 66.8807 10.7153 68.0862 10.4482L70.3857 9.97547C70.914 9.86194 71.2992 9.77261 71.5411 9.70748C72.025 9.57723 72.5374 9.40649 73.0782 9.19527C73.0782 8.66721 72.9679 8.29758 72.7473 8.08636C72.5267 7.87514 72.1389 7.76953 71.5838 7.76953C70.8722 7.76953 70.3385 7.88218 69.9827 8.10748C69.7052 8.2835 69.481 8.61441 69.3102 9.10022ZM73.0782 11.3603C72.6299 11.5187 72.1676 11.6633 71.6912 11.7939L71.2102 11.92C70.3278 12.1524 69.7692 12.3812 69.5344 12.6065C69.2924 12.8388 69.1715 13.1029 69.1715 13.3986C69.1715 13.7365 69.2907 14.0129 69.5291 14.2276C69.7674 14.4424 70.1179 14.5497 70.5805 14.5497C71.0644 14.5497 71.5145 14.4336 71.9307 14.2012C72.347 13.9689 72.6423 13.6855 72.8167 13.351C72.991 13.0166 73.0782 12.5819 73.0782 12.0468V11.3603ZM79.6459 5.46722H83.6914V7.29428C84.2963 6.54796 84.9082 6.01463 85.5273 5.69428C86.1464 5.37393 86.9007 5.21375 87.7903 5.21375C88.9929 5.21375 89.934 5.56754 90.6136 6.27514C91.2932 6.98273 91.633 8.07579 91.633 9.55435V16.6831H87.2672V10.5154C87.2672 9.81133 87.1356 9.3132 86.8723 9.02101C86.609 8.72882 86.239 8.58273 85.7622 8.58273C85.2356 8.58273 84.8086 8.77987 84.4813 9.17415C84.1539 9.56843 83.9903 10.276 83.9903 11.2969V16.6831H79.6459V5.46722ZM94.1018 1.20055H98.4461V4.12596H94.1018V1.20055ZM94.1018 5.46722H98.4461V16.6831H94.1018V5.46722ZM104.896 9.10022L100.744 8.66722C100.901 7.94906 101.127 7.38405 101.422 6.97217C101.717 6.56028 102.142 6.20297 102.698 5.90022C103.096 5.68196 103.644 5.51298 104.341 5.39329C105.039 5.2736 105.793 5.21375 106.604 5.21375C107.907 5.21375 108.953 5.28592 109.742 5.43025C110.532 5.57459 111.191 5.87557 111.717 6.33322C112.087 6.65006 112.379 7.0989 112.592 7.67975C112.806 8.26062 112.913 8.81507 112.913 9.34312V14.2963C112.913 14.8243 112.946 15.238 113.014 15.5372C113.082 15.8364 113.229 16.2184 113.457 16.6831H109.38L109.235 16.4173C109.151 16.2553 109.093 16.1239 109.059 16.023C109.009 15.8716 108.96 15.634 108.91 15.3101C108.341 15.8523 107.775 16.2395 107.213 16.4718C106.444 16.7816 105.551 16.9365 104.533 16.9365C103.181 16.9365 102.155 16.6267 101.454 16.0072C100.753 15.3876 100.403 14.6237 100.403 13.7154C100.403 12.8635 100.655 12.1629 101.16 11.6138C101.63 11.1038 102.467 10.7153 103.672 10.4482L105.972 9.97547C106.5 9.86194 106.885 9.77261 107.127 9.70748C107.611 9.57723 108.124 9.40649 108.664 9.19527C108.664 8.66721 108.554 8.29758 108.333 8.08636C108.113 7.87514 107.725 7.76953 107.17 7.76953C106.458 7.76953 105.925 7.88218 105.569 8.10748C105.291 8.2835 105.067 8.61441 104.896 9.10022ZM108.664 11.3603C108.216 11.5187 107.754 11.6633 107.277 11.7939L106.796 11.92C105.914 12.1524 105.355 12.3812 105.121 12.6065C104.879 12.8388 104.758 13.1029 104.758 13.3986C104.758 13.7365 104.877 14.0129 105.115 14.2276C105.354 14.4424 105.704 14.5497 106.167 14.5497C106.651 14.5497 107.101 14.4336 107.517 14.2012C107.933 13.9689 108.228 13.6855 108.403 13.351C108.577 13.0166 108.664 12.5819 108.664 12.0468V11.3603ZM115.232 1.20055H119.672V9.18471L122.917 5.46722H128.265L124.198 9.39593L128.5 16.6831H123.601L121.306 12.184L119.672 13.7682V16.6831H115.232V1.20055Z" fill="#0098FF"/>
</svg>
