<svg width="20" height="20" viewBox="0 0 20 20" fill="none" xmlns="http://www.w3.org/2000/svg">
<path fill-rule="evenodd" clip-rule="evenodd" d="M4.01569 1.35983C4.01569 1.04029 3.75665 0.78125 3.43712 0.78125C3.11758 0.78125 2.85854 1.04029 2.85854 1.35983V3.32746C2.85835 3.33592 2.85835 3.34441 2.85854 3.35293V11.6259C2.85835 11.6344 2.85835 11.6429 2.85854 11.6514V18.7171C2.85854 19.0367 3.11758 19.2957 3.43712 19.2957C3.75665 19.2957 4.01569 19.0367 4.01569 18.7171V12.0662L5.46836 11.6195C6.16066 11.4063 6.89063 11.3433 7.60922 11.4347C8.25615 11.517 8.88059 11.7226 9.44886 12.0398L9.44857 12.0151C9.46093 11.9986 9.48867 11.9384 9.53117 11.8462C9.75476 11.3614 10.3867 9.99088 11.3343 9.43849C12.6609 8.66524 14.1314 8.52151 15.7077 9.05647C16.3802 9.2847 16.861 9.61726 17.2929 9.94489V4.22081C17.2926 4.02864 17.2478 3.83859 17.1621 3.66662C17.0763 3.49466 16.9518 3.34492 16.7985 3.22917C16.6451 3.11342 16.4669 3.03483 16.278 2.99954C16.0892 2.96425 15.8947 2.97325 15.7098 3.02581L14.3112 3.42548C13.6312 3.61971 12.9182 3.67026 12.2177 3.57391C11.5171 3.47758 10.8442 3.23644 10.2419 2.8659C9.48483 2.40003 8.63705 2.10103 7.75518 1.98889C6.87342 1.87676 5.97789 1.95402 5.12836 2.21552L4.01569 2.55736V1.35983Z" fill="#333333"/>
<path d="M17.2101 12.1253C17.2101 13.314 16.3574 14.0762 15.621 14.5026C14.7812 14.9677 14.4065 15.2649 14.4065 16.208V16.6086H12.6623V16.1693C12.6623 14.8902 13.1403 14.3217 14.0447 13.792C14.8458 13.314 15.4142 12.8876 15.4142 12.2158C15.4142 11.531 14.7424 11.1176 14.0447 11.1176C13.1016 11.1176 12.3651 11.6344 12.3393 12.8618H10.5822C10.5822 10.9625 12.068 9.76098 14.0706 9.76098C15.6468 9.76098 17.2101 10.5103 17.2101 12.1253ZM12.5718 19.2959V17.3579H14.484V19.2959H12.5718Z" fill="#333333"/>
</svg>
